<svg xmlns="http://www.w3.org/2000/svg" xmlns:xlink="http://www.w3.org/1999/xlink" width="1080" zoomAndPan="magnify" viewBox="0 0 810 1012.49997" height="1350" preserveAspectRatio="xMidYMid meet" version="1.0"><defs><clipPath id="5032c74862"><path d="M 0.199219 101.199219 L 809.800781 101.199219 L 809.800781 910.800781 L 0.199219 910.800781 Z M 0.199219 101.199219 " clip-rule="nonzero"/></clipPath></defs><g clip-path="url(#5032c74862)"><path fill="#fff" d="M 405 101.199219 C 398.375 101.199219 391.753906 101.363281 385.136719 101.6875 C 378.519531 102.011719 371.914062 102.5 365.324219 103.148438 C 358.730469 103.796875 352.15625 104.609375 345.601562 105.582031 C 339.050781 106.554688 332.523438 107.6875 326.027344 108.976562 C 319.53125 110.269531 313.066406 111.722656 306.640625 113.332031 C 300.214844 114.941406 293.832031 116.707031 287.492188 118.628906 C 281.152344 120.554688 274.863281 122.632812 268.625 124.863281 C 262.390625 127.09375 256.210938 129.476562 250.089844 132.011719 C 243.96875 134.546875 237.914062 137.234375 231.925781 140.066406 C 225.9375 142.898438 220.019531 145.875 214.179688 149 C 208.335938 152.121094 202.574219 155.386719 196.890625 158.792969 C 191.207031 162.199219 185.613281 165.742188 180.105469 169.421875 C 174.597656 173.101562 169.183594 176.914062 163.859375 180.863281 C 158.539062 184.808594 153.320312 188.882812 148.199219 193.085938 C 143.078125 197.289062 138.0625 201.613281 133.152344 206.0625 C 128.246094 210.511719 123.449219 215.078125 118.761719 219.761719 C 114.078125 224.449219 109.511719 229.246094 105.0625 234.152344 C 100.613281 239.0625 96.289062 244.078125 92.085938 249.199219 C 87.882812 254.320312 83.808594 259.539062 79.863281 264.859375 C 75.914062 270.183594 72.101562 275.597656 68.421875 281.105469 C 64.742188 286.613281 61.195312 292.207031 57.792969 297.890625 C 54.386719 303.574219 51.121094 309.335938 48 315.179688 C 44.875 321.019531 41.898438 326.9375 39.066406 332.925781 C 36.234375 338.914062 33.546875 344.96875 31.011719 351.089844 C 28.476562 357.210938 26.09375 363.390625 23.863281 369.628906 C 21.632812 375.863281 19.554688 382.152344 17.628906 388.492188 C 15.707031 394.832031 13.941406 401.214844 12.332031 407.640625 C 10.722656 414.066406 9.269531 420.53125 7.976562 427.027344 C 6.6875 433.523438 5.554688 440.050781 4.582031 446.605469 C 3.609375 453.15625 2.796875 459.730469 2.148438 466.324219 C 1.5 472.914062 1.011719 479.519531 0.6875 486.136719 C 0.363281 492.753906 0.199219 499.375 0.199219 506 C 0.199219 512.625 0.363281 519.246094 0.6875 525.863281 C 1.011719 532.480469 1.5 539.085938 2.148438 545.675781 C 2.796875 552.269531 3.609375 558.84375 4.582031 565.398438 C 5.554688 571.949219 6.6875 578.476562 7.976562 584.972656 C 9.269531 591.46875 10.722656 597.933594 12.332031 604.359375 C 13.941406 610.785156 15.707031 617.167969 17.628906 623.507812 C 19.554688 629.847656 21.632812 636.136719 23.863281 642.375 C 26.09375 648.609375 28.476562 654.789062 31.011719 660.910156 C 33.546875 667.03125 36.234375 673.085938 39.066406 679.074219 C 41.898438 685.0625 44.875 690.980469 48 696.820312 C 51.121094 702.664062 54.386719 708.425781 57.792969 714.109375 C 61.195312 719.792969 64.742188 725.386719 68.421875 730.894531 C 72.101562 736.402344 75.914062 741.816406 79.863281 747.140625 C 83.808594 752.460938 87.882812 757.679688 92.085938 762.800781 C 96.289062 767.921875 100.613281 772.9375 105.0625 777.847656 C 109.511719 782.753906 114.078125 787.550781 118.761719 792.238281 C 123.449219 796.921875 128.246094 801.488281 133.152344 805.9375 C 138.0625 810.386719 143.078125 814.710938 148.199219 818.914062 C 153.320312 823.117188 158.539062 827.191406 163.859375 831.136719 C 169.183594 835.085938 174.597656 838.898438 180.105469 842.578125 C 185.613281 846.257812 191.207031 849.804688 196.890625 853.207031 C 202.574219 856.613281 208.335938 859.878906 214.179688 863 C 220.019531 866.125 225.9375 869.101562 231.925781 871.933594 C 237.914062 874.765625 243.96875 877.453125 250.089844 879.988281 C 256.210938 882.523438 262.390625 884.90625 268.628906 887.136719 C 274.863281 889.367188 281.152344 891.445312 287.492188 893.371094 C 293.832031 895.292969 300.214844 897.058594 306.640625 898.667969 C 313.066406 900.277344 319.53125 901.730469 326.027344 903.023438 C 332.523438 904.316406 339.050781 905.445312 345.601562 906.417969 C 352.15625 907.390625 358.730469 908.203125 365.324219 908.851562 C 371.914062 909.5 378.519531 909.988281 385.136719 910.3125 C 391.753906 910.636719 398.375 910.800781 405 910.800781 C 411.625 910.800781 418.246094 910.636719 424.863281 910.3125 C 431.480469 909.988281 438.085938 909.5 444.675781 908.851562 C 451.269531 908.203125 457.84375 907.390625 464.394531 906.417969 C 470.949219 905.445312 477.476562 904.316406 483.972656 903.023438 C 490.46875 901.730469 496.933594 900.277344 503.359375 898.667969 C 509.785156 897.058594 516.167969 895.292969 522.507812 893.371094 C 528.847656 891.445312 535.136719 889.367188 541.371094 887.136719 C 547.609375 884.90625 553.789062 882.523438 559.910156 879.988281 C 566.03125 877.453125 572.085938 874.765625 578.074219 871.933594 C 584.0625 869.101562 589.980469 866.125 595.820312 863 C 601.664062 859.878906 607.425781 856.613281 613.109375 853.207031 C 618.792969 849.800781 624.386719 846.257812 629.894531 842.578125 C 635.402344 838.898438 640.816406 835.085938 646.140625 831.136719 C 651.460938 827.191406 656.679688 823.117188 661.800781 818.914062 C 666.921875 814.710938 671.9375 810.386719 676.847656 805.9375 C 681.753906 801.488281 686.550781 796.921875 691.238281 792.238281 C 695.921875 787.550781 700.488281 782.753906 704.9375 777.847656 C 709.386719 772.9375 713.710938 767.921875 717.914062 762.800781 C 722.117188 757.679688 726.191406 752.460938 730.136719 747.140625 C 734.085938 741.816406 737.898438 736.402344 741.578125 730.894531 C 745.257812 725.386719 748.800781 719.792969 752.207031 714.109375 C 755.613281 708.425781 758.878906 702.664062 762 696.820312 C 765.125 690.980469 768.101562 685.0625 770.933594 679.074219 C 773.765625 673.085938 776.453125 667.03125 778.988281 660.910156 C 781.523438 654.789062 783.90625 648.609375 786.136719 642.375 C 788.367188 636.136719 790.445312 629.847656 792.371094 623.507812 C 794.292969 617.167969 796.058594 610.785156 797.667969 604.359375 C 799.277344 597.933594 800.730469 591.46875 802.023438 584.972656 C 803.3125 578.476562 804.445312 571.949219 805.417969 565.398438 C 806.390625 558.84375 807.203125 552.269531 807.851562 545.675781 C 808.5 539.085938 808.988281 532.480469 809.3125 525.863281 C 809.636719 519.246094 809.800781 512.625 809.800781 506 C 809.800781 499.375 809.636719 492.753906 809.3125 486.136719 C 808.988281 479.519531 808.5 472.914062 807.851562 466.324219 C 807.203125 459.730469 806.390625 453.15625 805.417969 446.605469 C 804.445312 440.050781 803.3125 433.523438 802.023438 427.027344 C 800.730469 420.53125 799.277344 414.066406 797.667969 407.640625 C 796.058594 401.214844 794.292969 394.832031 792.371094 388.492188 C 790.445312 382.152344 788.367188 375.863281 786.136719 369.628906 C 783.90625 363.390625 781.523438 357.210938 778.988281 351.089844 C 776.453125 344.96875 773.765625 338.914062 770.933594 332.925781 C 768.101562 326.9375 765.125 321.019531 762 315.179688 C 758.878906 309.335938 755.613281 303.574219 752.207031 297.890625 C 748.800781 292.207031 745.257812 286.613281 741.578125 281.105469 C 737.898438 275.597656 734.085938 270.183594 730.136719 264.859375 C 726.191406 259.539062 722.117188 254.320312 717.914062 249.199219 C 713.710938 244.078125 709.386719 239.0625 704.9375 234.152344 C 700.488281 229.246094 695.921875 224.449219 691.238281 219.761719 C 686.550781 215.078125 681.753906 210.511719 676.847656 206.0625 C 671.9375 201.613281 666.921875 197.289062 661.800781 193.085938 C 656.679688 188.882812 651.460938 184.808594 646.140625 180.863281 C 640.816406 176.914062 635.402344 173.101562 629.894531 169.421875 C 624.386719 165.742188 618.792969 162.199219 613.109375 158.792969 C 607.425781 155.386719 601.664062 152.121094 595.820312 149 C 589.980469 145.875 584.0625 142.898438 578.074219 140.066406 C 572.085938 137.234375 566.03125 134.546875 559.910156 132.011719 C 553.789062 129.476562 547.609375 127.09375 541.371094 124.863281 C 535.136719 122.632812 528.847656 120.554688 522.507812 118.628906 C 516.167969 116.707031 509.785156 114.941406 503.359375 113.332031 C 496.933594 111.722656 490.46875 110.269531 483.972656 108.976562 C 477.476562 107.6875 470.949219 106.554688 464.394531 105.582031 C 457.84375 104.609375 451.269531 103.796875 444.675781 103.148438 C 438.085938 102.5 431.480469 102.011719 424.863281 101.6875 C 418.246094 101.363281 411.625 101.199219 405 101.199219 Z M 593.90625 681.414062 C 593.90625 682.300781 593.820312 683.175781 593.648438 684.046875 C 593.472656 684.914062 593.21875 685.757812 592.878906 686.578125 C 592.539062 687.394531 592.125 688.171875 591.632812 688.910156 C 591.140625 689.648438 590.582031 690.328125 589.953125 690.953125 C 589.328125 691.582031 588.644531 692.140625 587.910156 692.632812 C 587.171875 693.125 586.394531 693.539062 585.578125 693.878906 C 584.757812 694.21875 583.914062 694.476562 583.046875 694.648438 C 582.175781 694.820312 581.300781 694.90625 580.414062 694.90625 C 579.527344 694.90625 578.648438 694.820312 577.78125 694.648438 C 576.910156 694.476562 576.066406 694.21875 575.25 693.878906 C 574.429688 693.539062 573.652344 693.125 572.917969 692.632812 C 572.179688 692.140625 571.5 691.582031 570.871094 690.953125 C 570.246094 690.328125 569.6875 689.648438 569.195312 688.910156 C 568.703125 688.171875 568.285156 687.394531 567.945312 686.578125 C 567.609375 685.757812 567.351562 684.914062 567.179688 684.046875 C 567.007812 683.175781 566.921875 682.300781 566.921875 681.414062 L 566.921875 654.425781 L 243.078125 654.425781 L 243.078125 681.414062 C 243.078125 682.300781 242.992188 683.175781 242.820312 684.046875 C 242.648438 684.914062 242.390625 685.757812 242.054688 686.578125 C 241.714844 687.394531 241.296875 688.171875 240.804688 688.910156 C 240.3125 689.648438 239.753906 690.328125 239.128906 690.953125 C 238.5 691.582031 237.820312 692.140625 237.082031 692.632812 C 236.347656 693.125 235.570312 693.539062 234.75 693.878906 C 233.933594 694.21875 233.089844 694.476562 232.21875 694.648438 C 231.351562 694.820312 230.472656 694.90625 229.585938 694.90625 C 228.699219 694.90625 227.824219 694.820312 226.953125 694.648438 C 226.085938 694.476562 225.242188 694.21875 224.421875 693.878906 C 223.605469 693.539062 222.828125 693.125 222.089844 692.632812 C 221.351562 692.140625 220.671875 691.582031 220.046875 690.953125 C 219.417969 690.328125 218.859375 689.648438 218.367188 688.910156 C 217.875 688.171875 217.460938 687.394531 217.121094 686.578125 C 216.78125 685.757812 216.523438 684.914062 216.351562 684.046875 C 216.179688 683.175781 216.09375 682.300781 216.09375 681.414062 L 216.09375 519.492188 C 216.097656 517.417969 216.261719 515.355469 216.585938 513.304688 C 216.910156 511.253906 217.386719 509.242188 218.019531 507.265625 C 218.652344 505.289062 219.433594 503.371094 220.363281 501.515625 C 221.289062 499.65625 222.355469 497.882812 223.554688 496.191406 C 224.753906 494.496094 226.078125 492.90625 227.523438 491.414062 C 228.96875 489.925781 230.519531 488.554688 232.175781 487.304688 C 233.832031 486.054688 235.574219 484.9375 237.402344 483.953125 C 239.230469 482.972656 241.125 482.132812 243.078125 481.441406 L 243.078125 357.574219 C 243.082031 356.25 243.152344 354.925781 243.285156 353.609375 C 243.417969 352.292969 243.617188 350.984375 243.878906 349.683594 C 244.140625 348.386719 244.464844 347.101562 244.851562 345.835938 C 245.238281 344.570312 245.683594 343.324219 246.195312 342.101562 C 246.703125 340.878906 247.269531 339.683594 247.894531 338.515625 C 248.519531 337.347656 249.203125 336.214844 249.9375 335.113281 C 250.675781 334.011719 251.464844 332.949219 252.304688 331.925781 C 253.144531 330.902344 254.035156 329.921875 254.972656 328.984375 C 255.910156 328.046875 256.886719 327.160156 257.914062 326.320312 C 258.9375 325.476562 260 324.6875 261.097656 323.953125 C 262.199219 323.214844 263.335938 322.535156 264.5 321.910156 C 265.667969 321.28125 266.863281 320.714844 268.085938 320.207031 C 269.3125 319.699219 270.554688 319.25 271.824219 318.863281 C 273.089844 318.476562 274.371094 318.152344 275.671875 317.890625 C 276.96875 317.628906 278.277344 317.433594 279.597656 317.300781 C 280.914062 317.164062 282.234375 317.097656 283.558594 317.09375 L 526.441406 317.09375 C 527.765625 317.097656 529.085938 317.164062 530.402344 317.300781 C 531.722656 317.433594 533.03125 317.628906 534.328125 317.890625 C 535.628906 318.152344 536.910156 318.476562 538.175781 318.863281 C 539.445312 319.25 540.6875 319.699219 541.914062 320.207031 C 543.136719 320.714844 544.332031 321.28125 545.5 321.910156 C 546.664062 322.535156 547.800781 323.214844 548.902344 323.953125 C 550 324.691406 551.0625 325.476562 552.085938 326.320312 C 553.113281 327.160156 554.089844 328.046875 555.027344 328.984375 C 555.964844 329.921875 556.855469 330.902344 557.695312 331.925781 C 558.535156 332.949219 559.324219 334.011719 560.0625 335.113281 C 560.796875 336.214844 561.480469 337.347656 562.105469 338.515625 C 562.730469 339.683594 563.296875 340.878906 563.804688 342.101562 C 564.316406 343.324219 564.761719 344.570312 565.148438 345.835938 C 565.535156 347.101562 565.859375 348.386719 566.121094 349.683594 C 566.382812 350.984375 566.582031 352.292969 566.714844 353.609375 C 566.847656 354.925781 566.917969 356.25 566.921875 357.574219 L 566.921875 481.441406 C 568.875 482.132812 570.769531 482.972656 572.597656 483.953125 C 574.425781 484.9375 576.167969 486.054688 577.824219 487.304688 C 579.480469 488.554688 581.03125 489.925781 582.476562 491.414062 C 583.921875 492.90625 585.246094 494.496094 586.445312 496.191406 C 587.644531 497.882812 588.710938 499.65625 589.636719 501.515625 C 590.566406 503.371094 591.347656 505.289062 591.980469 507.265625 C 592.613281 509.242188 593.089844 511.253906 593.414062 513.304688 C 593.738281 515.355469 593.902344 517.417969 593.90625 519.492188 Z M 593.90625 681.414062 " fill-opacity="1" fill-rule="nonzero"/></g><path fill="#fff" d="M 499.453125 438.535156 C 499.449219 437.207031 499.378906 435.886719 499.246094 434.570312 C 499.113281 433.25 498.917969 431.941406 498.65625 430.644531 C 498.394531 429.347656 498.070312 428.0625 497.683594 426.796875 C 497.296875 425.527344 496.847656 424.285156 496.339844 423.0625 C 495.832031 421.839844 495.261719 420.644531 494.636719 419.476562 C 494.011719 418.308594 493.332031 417.171875 492.59375 416.074219 C 491.855469 414.972656 491.070312 413.910156 490.226562 412.886719 C 489.386719 411.863281 488.5 410.882812 487.5625 409.945312 C 486.625 409.007812 485.644531 408.121094 484.621094 407.277344 C 483.597656 406.4375 482.535156 405.648438 481.433594 404.914062 C 480.332031 404.175781 479.199219 403.496094 478.03125 402.867188 C 476.863281 402.242188 475.667969 401.675781 474.445312 401.167969 C 473.222656 400.660156 471.976562 400.210938 470.710938 399.824219 C 469.445312 399.4375 468.160156 399.113281 466.863281 398.851562 C 465.5625 398.589844 464.253906 398.390625 462.9375 398.257812 C 461.621094 398.125 460.296875 398.058594 458.972656 398.054688 L 351.027344 398.054688 C 349.703125 398.058594 348.378906 398.125 347.0625 398.257812 C 345.746094 398.390625 344.4375 398.589844 343.136719 398.851562 C 341.839844 399.113281 340.554688 399.4375 339.289062 399.824219 C 338.023438 400.210938 336.777344 400.660156 335.554688 401.167969 C 334.332031 401.675781 333.136719 402.242188 331.96875 402.867188 C 330.800781 403.496094 329.667969 404.175781 328.566406 404.914062 C 327.464844 405.648438 326.402344 406.4375 325.378906 407.277344 C 324.355469 408.121094 323.375 409.007812 322.4375 409.945312 C 321.5 410.882812 320.613281 411.863281 319.773438 412.886719 C 318.929688 413.910156 318.144531 414.972656 317.40625 416.074219 C 316.667969 417.171875 315.988281 418.308594 315.363281 419.476562 C 314.734375 420.644531 314.167969 421.839844 313.660156 423.0625 C 313.152344 424.285156 312.703125 425.527344 312.316406 426.796875 C 311.929688 428.0625 311.605469 429.347656 311.34375 430.644531 C 311.082031 431.941406 310.886719 433.25 310.753906 434.570312 C 310.621094 435.886719 310.550781 437.207031 310.546875 438.535156 L 310.546875 479.011719 L 499.453125 479.011719 Z M 499.453125 438.535156 " fill-opacity="1" fill-rule="nonzero"/><path fill="#fff" d="M 553.425781 506 L 256.574219 506 C 255.6875 506 254.808594 506.085938 253.941406 506.257812 C 253.070312 506.433594 252.226562 506.6875 251.410156 507.027344 C 250.589844 507.367188 249.8125 507.78125 249.078125 508.273438 C 248.339844 508.765625 247.660156 509.324219 247.03125 509.953125 C 246.40625 510.578125 245.847656 511.261719 245.355469 511.996094 C 244.863281 512.734375 244.445312 513.511719 244.105469 514.328125 C 243.769531 515.148438 243.511719 515.992188 243.339844 516.859375 C 243.167969 517.730469 243.078125 518.609375 243.078125 519.492188 L 243.078125 559.972656 L 566.921875 559.972656 L 566.921875 519.492188 C 566.921875 518.609375 566.832031 517.730469 566.660156 516.859375 C 566.488281 515.992188 566.230469 515.148438 565.894531 514.328125 C 565.554688 513.511719 565.136719 512.734375 564.644531 511.996094 C 564.152344 511.261719 563.59375 510.578125 562.96875 509.953125 C 562.339844 509.324219 561.660156 508.765625 560.921875 508.273438 C 560.1875 507.78125 559.410156 507.367188 558.589844 507.027344 C 557.773438 506.6875 556.929688 506.433594 556.058594 506.257812 C 555.191406 506.085938 554.3125 506 553.425781 506 Z M 553.425781 506 " fill-opacity="" fill-rule="nonzero"/></svg>